<?xml version="1.0" encoding="iso-8859-1"?>
<svg version="1.1" id="&#x421;&#x43B;&#x43E;&#x439;_1"
	 xmlns="http://www.w3.org/2000/svg" xmlns:xlink="http://www.w3.org/1999/xlink" x="0px" y="0px" viewBox="0 0 48 48"
	 style="enable-background:new 0 0 48 48;" xml:space="preserve">
<path style="fill:#0D47A1;" d="M21.25,40.454l6.13-6.142c0.694-0.696,0.694-1.823,0-2.519L11.165,15.547
	c-0.694-0.696-1.82-0.696-2.514,0l-6.13,6.142c-0.694,0.696-0.694,1.823,0,2.519l16.215,16.246
	C19.43,41.15,20.555,41.15,21.25,40.454z"/>
<path style="fill:#29B6F6;" d="M18.788,40.498l-6.223-6.235c-0.669-0.67-0.669-1.756,0-2.426L35.854,8.502
	c0.669-0.67,1.753-0.67,2.421,0l6.223,6.235c0.669,0.67,0.669,1.756,0,2.426L21.209,40.498
	C20.541,41.167,19.457,41.167,18.788,40.498z"/>
</svg>